<svg width="24" height="105" viewBox="0 0 24 105" fill="none" xmlns="http://www.w3.org/2000/svg">
<path d="M19 65.625C16.79 65.625 15 73.4562 15 83.125C15 86.4062 15.21 89.5125 15.58 92.1375C16.27 97.2125 17.54 100.625 19 100.625C20.46 100.625 21.73 97.2125 22.42 92.1375C22.79 89.5125 23 86.4062 23 83.125C23 73.4562 21.21 65.625 19 65.625ZM21.07 81.2437L18.94 89.8625C18.8 90.4313 18.61 90.7375 18.43 90.7375C18.24 90.7375 18.05 90.4312 17.9 89.775L16.91 85.4437C16.62 84.175 16.62 82.075 16.91 80.8063C17.2 79.5375 17.68 79.5375 17.97 80.8063L18.45 82.9063L20.05 76.4313C20.35 75.2063 20.83 75.2937 21.11 76.6062C21.39 77.9187 21.37 79.975 21.07 81.2437Z" fill="#292D32"/>
<path d="M22 32.9875V39.375H2V32.9875C2 22.9687 3.86002 14.875 6.15002 14.875H17.85C20.14 14.875 22 22.9687 22 32.9875Z" fill="#292D32"/>
<path opacity="0.4" d="M2 39.375V72.0125C2 82.0312 3.85001 90.125 6.14001 90.125H12.4C12.98 90.125 13.48 87.9812 13.43 85.4437C13.29 78.75 13.78 71.4875 15.14 65.7125C15.7 63.3062 16.39 61.4688 17.14 60.4188C18.39 58.6688 19.6 58.8875 20.67 60.4625C21.32 61.425 22 59.3688 22 56.35V39.375H2ZM8 75.4687H6C5.59 75.4687 5.25 73.9812 5.25 72.1875C5.25 70.3937 5.59 68.9062 6 68.9062H8C8.41 68.9062 8.75 70.3937 8.75 72.1875C8.75 73.9812 8.41 75.4687 8 75.4687Z" fill="#292D32"/>
<path d="M8.75 72.1875C8.75 73.9812 8.41 75.4688 8 75.4688H6C5.59 75.4688 5.25 73.9812 5.25 72.1875C5.25 70.3938 5.59 68.9062 6 68.9062H8C8.41 68.9062 8.75 70.3938 8.75 72.1875Z" fill="#292D32"/>
</svg>
